<?xml version="1.0" encoding="UTF-8" standalone="no"?>
<!-- Created with Inkscape (http://www.inkscape.org/) -->

<svg
   version="1.1"
   id="svg1"
   width="305"
   height="322"
   viewBox="0 0 305 322"
   sodipodi:docname="logo"
   inkscape:version="1.4 (e7c3feb1, 2024-10-09)"
   inkscape:dataloss="true"
   xmlns:inkscape="http://www.inkscape.org/namespaces/inkscape"
   xmlns:sodipodi="http://sodipodi.sourceforge.net/DTD/sodipodi-0.dtd"
   xmlns="http://www.w3.org/2000/svg"
   xmlns:svg="http://www.w3.org/2000/svg">
  <defs
     id="defs1">
    <inkscape:path-effect
       effect="fillet_chamfer"
       id="path-effect23"
       is_visible="true"
       lpeversion="1"
       nodesatellites_param="F,0,0,1,0,6.7682476,0,1 @ F,0,0,1,0,12.1618,0,1 @ F,0,0,1,0,12.703532,0,1 @ F,0,0,1,0,30.19953,0,1"
       radius="0"
       unit="px"
       method="auto"
       mode="F"
       chamfer_steps="1"
       flexible="false"
       use_knot_distance="true"
       apply_no_radius="true"
       apply_with_radius="true"
       only_selected="false"
       hide_knots="false" />
    <inkscape:path-effect
       effect="fillet_chamfer"
       id="path-effect20"
       is_visible="true"
       lpeversion="1"
       nodesatellites_param="F,0,0,1,0,13.090379,0,1 @ F,0,0,1,0,4.1778338,0,1 @ F,0,0,1,0,15.709687,0,1 @ F,0,0,1,0,24.688583,0,1"
       radius="0"
       unit="px"
       method="auto"
       mode="F"
       chamfer_steps="1"
       flexible="false"
       use_knot_distance="true"
       apply_no_radius="true"
       apply_with_radius="true"
       only_selected="false"
       hide_knots="false" />
    <inkscape:path-effect
       effect="fillet_chamfer"
       id="path-effect18"
       is_visible="true"
       lpeversion="1"
       nodesatellites_param="F,0,0,1,0,13.090379,0,1 @ F,0,0,1,0,4.1778338,0,1 @ F,0,0,1,0,15.709687,0,1 @ F,0,0,1,0,24.688583,0,1"
       radius="0"
       unit="px"
       method="auto"
       mode="F"
       chamfer_steps="1"
       flexible="false"
       use_knot_distance="true"
       apply_no_radius="true"
       apply_with_radius="true"
       only_selected="false"
       hide_knots="false" />
    <inkscape:path-effect
       effect="fillet_chamfer"
       id="path-effect16"
       is_visible="true"
       lpeversion="1"
       nodesatellites_param="F,0,0,1,0,13.090379,0,1 @ F,0,0,1,0,4.1778338,0,1 @ F,0,0,1,0,15.709687,0,1 @ F,0,0,1,0,24.688583,0,1"
       radius="0"
       unit="px"
       method="auto"
       mode="F"
       chamfer_steps="1"
       flexible="false"
       use_knot_distance="true"
       apply_no_radius="true"
       apply_with_radius="true"
       only_selected="false"
       hide_knots="false" />
    <inkscape:path-effect
       effect="fillet_chamfer"
       id="path-effect13"
       is_visible="true"
       lpeversion="1"
       nodesatellites_param="F,0,0,1,0,8.6557236,0,1 @ F,0,0,1,0,7.1868323,0,1 @ F,0,0,1,0,7.48404,0,1 @ F,0,0,1,0,7.6921741,0,1"
       radius="0"
       unit="px"
       method="auto"
       mode="F"
       chamfer_steps="1"
       flexible="false"
       use_knot_distance="true"
       apply_no_radius="true"
       apply_with_radius="true"
       only_selected="false"
       hide_knots="false" />
    <inkscape:path-effect
       effect="fillet_chamfer"
       id="path-effect1"
       is_visible="true"
       lpeversion="1"
       nodesatellites_param="F,0,0,1,0,32.432354,0,1 @ F,0,0,1,0,18.675262,0,1 @ F,0,0,1,0,0,0,1 @ F,0,0,1,0,18.868825,0,1 @ F,0,0,1,0,27.877735,0,1"
       radius="0"
       unit="px"
       method="auto"
       mode="F"
       chamfer_steps="1"
       flexible="false"
       use_knot_distance="true"
       apply_no_radius="true"
       apply_with_radius="true"
       only_selected="false"
       hide_knots="false" />
  </defs>
  <sodipodi:namedview
     id="namedview1"
     pagecolor="#ffffff"
     bordercolor="#000000"
     borderopacity="0.25"
     inkscape:showpageshadow="2"
     inkscape:pageopacity="0.0"
     inkscape:pagecheckerboard="false"
     inkscape:deskcolor="#d1d1d1"
     showgrid="false"
     inkscape:zoom="1.668633"
     inkscape:cx="135.44021"
     inkscape:cy="158.51299"
     inkscape:window-width="1336"
     inkscape:window-height="874"
     inkscape:window-x="0"
     inkscape:window-y="25"
     inkscape:window-maximized="0"
     inkscape:current-layer="g1"
     showborder="false"
     labelstyle="default">
    <inkscape:page
       x="0"
       y="0"
       width="305"
       height="322"
       id="page2"
       margin="0"
       bleed="0" />
  </sodipodi:namedview>
  <g
     inkscape:groupmode="layer"
     inkscape:label="Image"
     id="g1">
    <g
       id="g2">
      <path
         style="fill:#11a4ff;fill-opacity:1;fill-rule:evenodd;stroke-width:1.194"
         d="m 56.829729,303.39328 c -1.188421,8.61949 1.520042,12.30841 14.799774,-1.56129 7.130648,-7.44743 17.480712,-20.61278 23.991128,-28.61242 40.258359,-49.46727 58.502409,-70.73494 87.283949,-119.66357 22.71266,-38.61153 51.1672,-92.534714 65.21931,-119.506037 4.81491,-9.241646 1.75051,-11.916615 -6.90222,-6.109395 -11.95213,8.021588 -29.09071,19.215395 -45.25388,28.660184 -13.28743,7.764382 -34.82395,20.726924 -43.32676,33.385423 C 128.2387,126.31496 96.009668,200.74011 78.735852,242.46399 71.884397,259.01328 59.271305,285.6848 56.829729,303.39328 Z"
         id="path1"
         inkscape:path-effect="#path-effect1"
         inkscape:original-d="m 66.558401,272.52259 c 0,0 -31.444914,75.46779 17.294703,15.19837 C 132.59272,227.45154 151.45967,207.01235 182.90458,153.556 214.3495,100.09964 256.80013,17.294703 256.80013,17.294703 c 0,0 -54.50452,38.257978 -85.42535,52.408189 C 140.45395,83.853104 66.558401,272.52259 66.558401,272.52259 Z"
         sodipodi:nodetypes="csscsc"
         transform="matrix(1.0944604,0,0,1.0365137,-9.0129386,-10.309976)" />
      <path
         style="fill:#ffffff;fill-opacity:1;fill-rule:evenodd;stroke-width:1.194"
         d="m 30.119564,80.693543 c 13.749173,-0.716797 40.33456,-1.153466 52.811076,5.062142 3.511291,1.749271 7.268268,7.175554 9.473598,10.475659 6.74551,10.094136 15.844632,23.244146 21.122272,30.833626 2.35928,3.39275 2.9628,9.21924 1.31398,13.00946 -5.16096,11.86376 -15.849352,35.99617 -22.20016,47.25257 -2.051224,3.63567 -7.032699,3.63034 -9.490953,0.20088 C 69.854435,168.98036 34.583634,111.29079 24.30764,89.39813 c -2.016439,-4.295955 1.038228,-8.455716 5.811924,-8.704587 z"
         id="path12"
         inkscape:path-effect="#path-effect13"
         inkscape:original-d="m 21.484341,81.282423 c 0,0 57.649647,-5.371086 66.959528,8.951808 9.309881,14.322899 29.361931,42.968679 29.361931,42.968679 0,0 -25.781207,60.51423 -29.720003,60.15616 C 84.147001,193.00099 20.052051,88.801942 21.484341,81.282423 Z"
         transform="matrix(1.0480993,0,0,1.0826217,-3.8810393,-10.852944)" />
      <path
         style="fill:#ffffff;fill-opacity:1;fill-rule:evenodd;stroke-width:1.194"
         d="m 34.549743,80.495246 c 15.65618,-0.585277 41.021145,-0.301582 50.96639,6.793635 1.867131,1.332063 3.946954,4.513794 5.221112,6.437429 5.227425,7.892 12.436865,18.39249 18.101115,26.57977 4.93581,7.13436 6.20561,19.36565 2.69959,27.30189 -3.24714,7.35024 -7.33484,16.43331 -11.20967,24.56411 -5.813919,12.19972 -19.275599,12.6583 -26.680712,1.26506 -15.046921,-23.15064 -37.62255,-60.64807 -47.39491,-80.053808 -3.23083,-6.415711 1.073224,-12.618036 8.297085,-12.888086 z"
         id="path13"
         transform="matrix(0.08342812,-0.21706013,0.39554865,0.1317455,-30.299414,150.81221)"
         inkscape:path-effect="#path-effect16"
         inkscape:original-d="m 21.484341,81.282423 c 0,0 57.649647,-5.371086 66.959528,8.951808 9.309881,14.322899 29.361931,42.968679 29.361931,42.968679 0,0 -25.781207,60.51423 -29.720003,60.15616 C 84.147001,193.00099 20.052051,88.801942 21.484341,81.282423 Z" />
      <path
         style="fill:#ffffff;fill-opacity:1;fill-rule:evenodd;stroke-width:1.194"
         d="m 34.549743,80.495246 c 15.65618,-0.585277 41.021145,-0.301582 50.96639,6.793635 1.867131,1.332063 3.946954,4.513794 5.221112,6.437429 5.227425,7.892 12.436865,18.39249 18.101115,26.57977 4.93581,7.13436 6.20561,19.36565 2.69959,27.30189 -3.24714,7.35024 -7.33484,16.43331 -11.20967,24.56411 -5.813919,12.19972 -19.275599,12.6583 -26.680712,1.26506 -15.046921,-23.15064 -37.62255,-60.64807 -47.39491,-80.053808 -3.23083,-6.415711 1.073224,-12.618036 8.297085,-12.888086 z"
         id="path16"
         transform="matrix(0.10342657,-0.23771689,0.49036512,0.1442832,-39.167581,178.54972)"
         inkscape:path-effect="#path-effect18"
         inkscape:original-d="m 21.484341,81.282423 c 0,0 57.649647,-5.371086 66.959528,8.951808 9.309881,14.322899 29.361931,42.968679 29.361931,42.968679 0,0 -25.781207,60.51423 -29.720003,60.15616 C 84.147001,193.00099 20.052051,88.801942 21.484341,81.282423 Z" />
      <path
         style="fill:#ffffff;fill-opacity:1;fill-rule:evenodd;stroke-width:1.194"
         d="m 34.549743,80.495246 c 15.65618,-0.585277 41.021145,-0.301582 50.96639,6.793635 1.867131,1.332063 3.946954,4.513794 5.221112,6.437429 5.227425,7.892 12.436865,18.39249 18.101115,26.57977 4.93581,7.13436 6.20561,19.36565 2.69959,27.30189 -3.24714,7.35024 -7.33484,16.43331 -11.20967,24.56411 -5.813919,12.19972 -19.275599,12.6583 -26.680712,1.26506 -15.046921,-23.15064 -37.62255,-60.64807 -47.39491,-80.053808 -3.23083,-6.415711 1.073224,-12.618036 8.297085,-12.888086 z"
         id="path18"
         transform="matrix(0.0923748,-0.25011094,0.43796655,0.15180582,-7.0183643,212.17769)"
         inkscape:path-effect="#path-effect20"
         inkscape:original-d="m 21.484341,81.282423 c 0,0 57.649647,-5.371086 66.959528,8.951808 9.309881,14.322899 29.361931,42.968679 29.361931,42.968679 0,0 -25.781207,60.51423 -29.720003,60.15616 C 84.147001,193.00099 20.052051,88.801942 21.484341,81.282423 Z" />
      <path
         style="fill:#ffffff;fill-opacity:1;fill-rule:evenodd;stroke-width:1.194"
         d="m 176.00893,196.41029 55.66042,-94.45405 a 21.488795,21.488795 150.01836 0 1 18.33583,-10.578362 l 34.96733,-0.288986 c 7.01573,-0.05798 10.60799,5.18281 7.95165,11.676438 -9.36072,22.88298 -30.93197,74.00324 -49.94882,107.2214 -8.27046,14.44664 -27.3064,35.49516 -43.44753,38.37392 -28.23417,5.03553 -58.59515,-11.03717 -31.66286,-41.259 2.48627,-2.78995 6.24622,-7.47092 8.14398,-10.69136 z"
         id="path22"
         sodipodi:nodetypes="cccsc"
         inkscape:path-effect="#path-effect23"
         inkscape:original-d="M 172.57274,202.2414 237.8438,91.478385 297.67561,90.983908 c 0,0 -45.65827,115.958142 -71.69928,143.893032 -27.19627,29.17418 -99.8845,11.86747 -53.40359,-32.63554 z"
         transform="matrix(1.0322591,0,0,1.0347684,-4.3226049,-8.1377317)" />
    </g>
  </g>
</svg>
